<svg width="103" height="60" viewBox="0 0 103 60" fill="none" xmlns="http://www.w3.org/2000/svg">
<g id="Logo">
<path id="Vector" fill-rule="evenodd" clip-rule="evenodd" d="M2.48602 29.5971C3.85674 29.5971 4.97204 30.7982 4.97204 32.276C4.97204 33.7579 3.85674 34.959 2.48602 34.959C1.11277 34.959 0 33.7579 0 32.276C0 30.7982 1.11277 29.5971 2.48602 29.5971ZM6.15941 38.8021C8.66566 38.8021 10.7002 40.9943 10.7002 43.695C10.7002 46.397 8.66566 48.5879 6.15941 48.5879C3.65316 48.5879 1.62236 46.397 1.62236 43.695C1.62236 40.9957 3.65316 38.8021 6.15941 38.8021ZM16.1047 48.3588C18.611 48.3588 20.6418 50.5496 20.6418 53.2544C20.6418 55.9551 18.611 58.1473 16.1047 58.1473C13.5985 58.1473 11.5639 55.9551 11.5639 53.2544C11.5639 50.5496 13.5985 48.3588 16.1047 48.3588ZM30.2558 52.7745C32.1058 52.7745 33.6068 54.3928 33.6068 56.3873C33.6068 58.3818 32.1058 60 30.2558 60C28.4059 60 26.9049 58.3818 26.9049 56.3873C26.9049 54.3941 28.4059 52.7745 30.2558 52.7745ZM43.5559 42.2976C46.0622 42.2976 48.0967 44.4912 48.0967 47.1932C48.0967 49.8953 46.0634 52.0861 43.5559 52.0861C41.0522 52.0861 39.0189 49.8953 39.0189 47.1932C39.0189 44.4912 41.0522 42.2976 43.5559 42.2976ZM37.4964 1.80091C39.6511 1.80091 41.3936 3.6809 41.3936 6.00123C41.3936 8.32019 39.6511 10.2015 37.4964 10.2015C35.348 10.2015 33.603 8.32156 33.603 6.00123C33.603 3.6809 35.3493 1.80091 37.4964 1.80091ZM22.9141 0C24.6427 0 26.0476 1.51326 26.0476 3.37825C26.0476 5.2446 24.644 6.75922 22.9141 6.75922C21.1855 6.75922 19.7807 5.24324 19.7807 3.37825C19.7807 1.51326 21.1843 0 22.9141 0ZM10.1603 7.45723C11.5336 7.45723 12.6463 8.65829 12.6463 10.1361C12.6463 11.618 11.5336 12.8191 10.1603 12.8191C8.78579 12.8191 7.67429 11.618 7.67429 10.1361C7.67429 8.65829 8.78579 7.45723 10.1603 7.45723ZM47.228 11.1109C49.862 11.1109 52.0003 13.4148 52.0003 16.2559C52.0003 19.097 49.862 21.4024 47.228 21.4024C44.5903 21.4024 42.4533 19.097 42.4533 16.2559C42.4533 13.4148 44.5903 11.1109 47.228 11.1109ZM3.13345 19.4597C4.20954 19.4597 5.08079 20.399 5.08079 21.5564C5.08079 22.7139 4.20954 23.6518 3.13345 23.6518C2.06114 23.6518 1.1899 22.7139 1.1899 21.5564C1.1899 20.399 2.06114 19.4597 3.13345 19.4597Z" fill="#FF7628"/>
<path id="Vector_2" d="M94.854 30.662C94.6833 30.0335 94.3419 29.5223 93.8323 29.1269C93.3227 28.7329 92.7296 28.5366 92.0556 28.5366C91.3248 28.5366 90.6824 28.7588 90.1323 29.2005C89.7871 29.4759 89.4659 29.9654 89.1713 30.662H94.854ZM97.4918 32.891H89.0537C89.1776 33.6912 89.5064 34.3293 90.035 34.8023C90.561 35.2754 91.235 35.514 92.0556 35.514C93.0369 35.514 93.8816 35.1418 94.5859 34.4029L96.8013 35.5249C96.2488 36.366 95.5887 36.9904 94.8173 37.3967C94.0472 37.8016 93.1355 38.002 92.0759 38.002C90.4333 38.002 89.0967 37.4444 88.0687 36.3292C87.033 35.2113 86.5171 33.8126 86.5171 32.133C86.5171 30.4112 87.033 28.9851 88.0623 27.8468C89.0942 26.7112 90.3814 26.1413 91.933 26.1413C93.5781 26.1413 94.9185 26.7098 95.9541 27.8468C96.9834 28.9851 97.5019 30.4861 97.5019 32.3525L97.4918 32.891ZM81.4199 22.2764H84.0374V26.429H85.5928V28.8679H84.0374V37.7102H81.4199V28.8679H80.0732V26.429H81.4199V22.2764ZM73.0729 28.7534C72.2585 28.7534 71.582 29.0601 71.0459 29.6804C70.5059 30.3007 70.2379 31.0928 70.2379 32.058C70.2379 33.0369 70.5097 33.8357 71.0585 34.4656C71.6048 35.0968 72.2813 35.4104 73.083 35.4104C73.9113 35.4104 74.5941 35.0995 75.1404 34.4806C75.6866 33.8644 75.9585 33.0532 75.9585 32.0498C75.9585 31.071 75.6866 30.2721 75.1404 29.6695C74.5941 29.0574 73.9075 28.7534 73.0729 28.7534ZM75.8346 26.429H78.4521V37.7102H75.8346V36.5174C75.3224 37.0449 74.8053 37.4199 74.2893 37.6557C73.7734 37.8834 73.2132 38.0006 72.6101 38.0006C71.2558 38.0006 70.0899 37.4335 69.1011 36.306C68.1122 35.1772 67.6203 33.7717 67.6203 32.0907C67.6203 30.3512 68.0958 28.9238 69.0518 27.81C70.0065 26.6989 71.1698 26.1413 72.5329 26.1413C73.1627 26.1413 73.7494 26.2695 74.3058 26.5244C74.8558 26.7807 75.3642 27.1651 75.8333 27.6777V26.429H75.8346ZM55.9502 26.429H58.6208L61.2675 33.0859L63.8976 26.429H66.5645L62.1071 37.7102H60.4076L55.9502 26.429ZM49.419 28.8052C48.6009 28.8052 47.9206 29.1119 47.3819 29.7227C46.8394 30.3362 46.5714 31.1173 46.5714 32.0703C46.5714 33.0532 46.8357 33.8467 47.3756 34.4547C47.9118 35.0641 48.5857 35.3695 49.4064 35.3695C50.2271 35.3695 50.9112 35.0627 51.4574 34.4438C51.9999 33.8276 52.2756 33.0382 52.2756 32.0703C52.2756 31.1037 52.0075 30.3184 51.4713 29.7131C50.9339 29.1078 50.2498 28.8052 49.419 28.8052ZM49.376 26.1399C50.3649 26.1399 51.2956 26.4072 52.1643 26.9375C53.0317 27.4664 53.7095 28.1931 54.1976 29.1038C54.687 30.0158 54.9285 31.0001 54.9285 32.0566C54.9285 33.1241 54.6806 34.1193 54.1951 35.045C53.7019 35.972 53.0355 36.6946 52.1883 37.2181C51.3411 37.7375 50.4091 38.0006 49.39 38.0006C47.889 38.0006 46.6093 37.4239 45.5459 36.2733C44.4875 35.1241 43.9538 33.724 43.9538 32.0812C43.9538 30.3184 44.557 28.8502 45.7532 27.675C46.8053 26.6539 48.0116 26.1399 49.376 26.1399ZM32.6441 26.429H35.2578V27.5837C35.8572 27.0397 36.3934 26.6662 36.8827 26.4576C37.362 26.2449 37.8577 26.1399 38.3635 26.1399C39.4054 26.1399 40.283 26.5326 41.0101 27.3124C41.6196 27.9749 41.9218 28.9565 41.9218 30.2585V37.7102H39.3258V32.7683C39.3258 31.4186 39.2726 30.5229 39.1576 30.0799C39.0476 29.6395 38.849 29.3028 38.5708 29.0697C38.2927 28.8379 37.9512 28.7234 37.539 28.7234C37.0029 28.7234 36.5502 28.9129 36.1683 29.3001C35.7864 29.6804 35.5183 30.2121 35.3742 30.8897C35.297 31.2441 35.2566 32.0062 35.2566 33.1814V37.7102H32.6428V26.429H32.6441ZM20.8222 26.429H23.4398V27.5837C24.0366 27.0397 24.5753 26.6662 25.0621 26.4576C25.5452 26.2449 26.0409 26.1399 26.5467 26.1399C27.5861 26.1399 28.4662 26.5326 29.1907 27.3124C29.8002 27.9749 30.1024 28.9565 30.1024 30.2585V37.7102H27.5089V32.7683C27.5089 31.4186 27.452 30.5229 27.3382 30.0799C27.2282 29.6395 27.0335 29.3028 26.7515 29.0697C26.4733 28.8379 26.1319 28.7234 25.7222 28.7234C25.1861 28.7234 24.7308 28.9129 24.3477 29.3001C23.9696 29.6804 23.7015 30.2121 23.5536 30.8897C23.4802 31.2441 23.4398 32.0062 23.4398 33.1814V37.7102H20.8222V26.429ZM15.4102 22.4591H18.0808V37.7102H15.4102V22.4591Z" fill="#192239"/>
<g id="Your solution">
<path d="M57.934 42.7951C57.9897 42.7201 58.0569 42.6826 58.1358 42.6826C58.2007 42.6826 58.2587 42.7101 58.3097 42.7651C58.3607 42.8201 58.3862 42.8876 58.3862 42.9676C58.3862 43.0426 58.3653 43.1051 58.3236 43.1551L56.6332 45.4576V47.7226C56.6332 47.8226 56.6053 47.9001 56.5497 47.9551C56.4987 48.0101 56.4314 48.0376 56.348 48.0376C56.2645 48.0376 56.1949 48.0101 56.1393 47.9551C56.0882 47.9001 56.0627 47.8226 56.0627 47.7226V45.4501L54.3723 43.1551C54.3259 43.1001 54.3027 43.0376 54.3027 42.9676C54.3027 42.8876 54.3282 42.8201 54.3793 42.7651C54.4349 42.7101 54.4975 42.6826 54.5671 42.6826C54.6459 42.6826 54.7132 42.7201 54.7688 42.7951L56.3549 44.9776L57.934 42.7951Z" fill="#FF7628"/>
<path d="M59.836 48.0526C59.516 48.0526 59.2332 47.9751 58.9874 47.8201C58.7462 47.6651 58.5584 47.4451 58.4239 47.1601C58.294 46.8701 58.2291 46.5351 58.2291 46.1551C58.2291 45.7751 58.294 45.4426 58.4239 45.1576C58.5584 44.8676 58.7462 44.6451 58.9874 44.4901C59.2332 44.3351 59.516 44.2576 59.836 44.2576C60.156 44.2576 60.4389 44.3351 60.6847 44.4901C60.9305 44.6451 61.1184 44.8676 61.2482 45.1576C61.3827 45.4426 61.45 45.7751 61.45 46.1551C61.45 46.5351 61.3827 46.8701 61.2482 47.1601C61.1184 47.4451 60.9305 47.6651 60.6847 47.8201C60.4389 47.9751 60.156 48.0526 59.836 48.0526ZM59.836 47.5501C60.17 47.5501 60.425 47.4326 60.6013 47.1976C60.7821 46.9576 60.8726 46.6101 60.8726 46.1551C60.8726 45.7101 60.7821 45.3676 60.6013 45.1276C60.4204 44.8826 60.1653 44.7601 59.836 44.7601C59.5068 44.7601 59.2517 44.8826 59.0708 45.1276C58.89 45.3676 58.7995 45.7101 58.7995 46.1551C58.7995 46.6051 58.8876 46.9501 59.0639 47.1901C59.2447 47.4301 59.5021 47.5501 59.836 47.5501Z" fill="#FF7628"/>
<path d="M64.8634 44.2726C64.9516 44.2726 65.0188 44.3001 65.0652 44.3551C65.1162 44.4101 65.1417 44.4826 65.1417 44.5726V47.7451C65.1417 47.8301 65.1162 47.9001 65.0652 47.9551C65.0188 48.0101 64.9516 48.0376 64.8634 48.0376C64.78 48.0376 64.7127 48.0126 64.6617 47.9626C64.6153 47.9076 64.5921 47.8376 64.5921 47.7526V47.3776C64.4855 47.5976 64.3347 47.7651 64.14 47.8801C63.9498 47.9951 63.7342 48.0526 63.493 48.0526C63.0895 48.0526 62.7858 47.9326 62.5817 47.6926C62.3776 47.4476 62.2756 47.0876 62.2756 46.6126V44.5726C62.2756 44.4826 62.3011 44.4101 62.3521 44.3551C62.4031 44.3001 62.4727 44.2726 62.5608 44.2726C62.6489 44.2726 62.7162 44.3001 62.7626 44.3551C62.8136 44.4101 62.8391 44.4826 62.8391 44.5726V46.5976C62.8391 46.9226 62.8994 47.1626 63.02 47.3176C63.1405 47.4676 63.3307 47.5426 63.5904 47.5426C63.8872 47.5426 64.126 47.4401 64.3069 47.2351C64.4878 47.0251 64.5782 46.7501 64.5782 46.4101V44.5726C64.5782 44.4826 64.6037 44.4101 64.6547 44.3551C64.7058 44.3001 64.7753 44.2726 64.8634 44.2726Z" fill="#FF7628"/>
<path d="M67.8655 44.2726C68.0603 44.2576 68.1577 44.3426 68.1577 44.5276C68.1577 44.6076 68.1368 44.6726 68.0951 44.7226C68.0533 44.7676 67.9814 44.7951 67.8794 44.8051L67.6707 44.8276C67.36 44.8576 67.1281 44.9776 66.9751 45.1876C66.8267 45.3926 66.7525 45.6351 66.7525 45.9151V47.7376C66.7525 47.8376 66.727 47.9126 66.6759 47.9626C66.6249 48.0126 66.5577 48.0376 66.4742 48.0376C66.3907 48.0376 66.3212 48.0126 66.2655 47.9626C66.2145 47.9076 66.189 47.8326 66.189 47.7376V44.5726C66.189 44.4776 66.2168 44.4051 66.2725 44.3551C66.3281 44.3001 66.3954 44.2726 66.4742 44.2726C66.5484 44.2726 66.611 44.3001 66.662 44.3551C66.713 44.4051 66.7385 44.4751 66.7385 44.5651V44.9851C66.8359 44.7651 66.9728 44.5976 67.149 44.4826C67.3299 44.3676 67.5362 44.3001 67.7681 44.2801L67.8655 44.2726Z" fill="#FF7628"/>
<path d="M72.0836 48.0601C71.7358 48.0601 71.4019 48.0051 71.0819 47.8951C70.7665 47.7801 70.5137 47.6276 70.3236 47.4376C70.254 47.3676 70.2193 47.2801 70.2193 47.1751C70.2193 47.1051 70.2378 47.0451 70.2749 46.9951C70.312 46.9401 70.3561 46.9126 70.4071 46.9126C70.4674 46.9126 70.5323 46.9401 70.6019 46.9951C71.0332 47.3551 71.5248 47.5351 72.0766 47.5351C72.4755 47.5351 72.7816 47.4526 72.9949 47.2876C73.2082 47.1226 73.3149 46.8876 73.3149 46.5826C73.3149 46.4076 73.2639 46.2676 73.1619 46.1626C73.0598 46.0526 72.9253 45.9651 72.7584 45.9001C72.5914 45.8351 72.3665 45.7676 72.0836 45.6976C71.7033 45.6026 71.3903 45.5026 71.1445 45.3976C70.9033 45.2926 70.7062 45.1426 70.5532 44.9476C70.4048 44.7526 70.3306 44.4976 70.3306 44.1826C70.3306 43.8826 70.4048 43.6176 70.5532 43.3876C70.7062 43.1526 70.9172 42.9726 71.1862 42.8476C71.4598 42.7176 71.7706 42.6526 72.1184 42.6526C72.443 42.6526 72.7445 42.7076 73.0227 42.8176C73.3056 42.9226 73.5422 43.0751 73.7323 43.2751C73.8065 43.3551 73.8436 43.4426 73.8436 43.5376C73.8436 43.6076 73.8251 43.6701 73.7879 43.7251C73.7508 43.7751 73.7068 43.8001 73.6558 43.8001C73.6048 43.8001 73.5375 43.7726 73.454 43.7176C73.2268 43.5176 73.0158 43.3776 72.821 43.2976C72.6262 43.2176 72.392 43.1776 72.1184 43.1776C71.7335 43.1776 71.4343 43.2651 71.221 43.4401C71.0077 43.6101 70.901 43.8501 70.901 44.1601C70.901 44.4251 70.9937 44.6251 71.1793 44.7601C71.3694 44.8901 71.6593 45.0051 72.0488 45.1051C72.4708 45.2151 72.8024 45.3176 73.0436 45.4126C73.2848 45.5026 73.4842 45.6401 73.6419 45.8251C73.8042 46.0101 73.8853 46.2576 73.8853 46.5676C73.8853 46.8626 73.8088 47.1226 73.6558 47.3476C73.5074 47.5726 73.2964 47.7476 73.0227 47.8726C72.7491 47.9976 72.4361 48.0601 72.0836 48.0601Z" fill="#FF7628"/>
<path d="M76.1336 48.0526C75.8136 48.0526 75.5307 47.9751 75.2849 47.8201C75.0437 47.6651 74.8559 47.4451 74.7214 47.1601C74.5916 46.8701 74.5266 46.5351 74.5266 46.1551C74.5266 45.7751 74.5916 45.4426 74.7214 45.1576C74.8559 44.8676 75.0437 44.6451 75.2849 44.4901C75.5307 44.3351 75.8136 44.2576 76.1336 44.2576C76.4536 44.2576 76.7365 44.3351 76.9823 44.4901C77.2281 44.6451 77.4159 44.8676 77.5458 45.1576C77.6803 45.4426 77.7475 45.7751 77.7475 46.1551C77.7475 46.5351 77.6803 46.8701 77.5458 47.1601C77.4159 47.4451 77.2281 47.6651 76.9823 47.8201C76.7365 47.9751 76.4536 48.0526 76.1336 48.0526ZM76.1336 47.5501C76.4675 47.5501 76.7226 47.4326 76.8988 47.1976C77.0797 46.9576 77.1701 46.6101 77.1701 46.1551C77.1701 45.7101 77.0797 45.3676 76.8988 45.1276C76.7179 44.8826 76.4629 44.7601 76.1336 44.7601C75.8043 44.7601 75.5493 44.8826 75.3684 45.1276C75.1875 45.3676 75.0971 45.7101 75.0971 46.1551C75.0971 46.6051 75.1852 46.9501 75.3614 47.1901C75.5423 47.4301 75.7997 47.5501 76.1336 47.5501Z" fill="#FF7628"/>
<path d="M78.8723 48.0376C78.7888 48.0376 78.7193 48.0126 78.6636 47.9626C78.6126 47.9076 78.5871 47.8326 78.5871 47.7376V42.9751C78.5871 42.8801 78.6126 42.8076 78.6636 42.7576C78.7193 42.7026 78.7888 42.6751 78.8723 42.6751C78.9511 42.6751 79.0161 42.7026 79.0671 42.7576C79.1227 42.8076 79.1506 42.8801 79.1506 42.9751V47.7376C79.1506 47.8326 79.1227 47.9076 79.0671 47.9626C79.0161 48.0126 78.9511 48.0376 78.8723 48.0376Z" fill="#FF7628"/>
<path d="M82.7778 44.2726C82.866 44.2726 82.9332 44.3001 82.9796 44.3551C83.0306 44.4101 83.0561 44.4826 83.0561 44.5726V47.7451C83.0561 47.8301 83.0306 47.9001 82.9796 47.9551C82.9332 48.0101 82.866 48.0376 82.7778 48.0376C82.6944 48.0376 82.6271 48.0126 82.5761 47.9626C82.5297 47.9076 82.5065 47.8376 82.5065 47.7526V47.3776C82.3999 47.5976 82.2491 47.7651 82.0544 47.8801C81.8642 47.9951 81.6486 48.0526 81.4074 48.0526C81.0039 48.0526 80.7002 47.9326 80.4961 47.6926C80.292 47.4476 80.19 47.0876 80.19 46.6126V44.5726C80.19 44.4826 80.2155 44.4101 80.2665 44.3551C80.3175 44.3001 80.3871 44.2726 80.4752 44.2726C80.5633 44.2726 80.6306 44.3001 80.677 44.3551C80.728 44.4101 80.7535 44.4826 80.7535 44.5726V46.5976C80.7535 46.9226 80.8138 47.1626 80.9344 47.3176C81.0549 47.4676 81.2451 47.5426 81.5048 47.5426C81.8016 47.5426 82.0404 47.4401 82.2213 47.2351C82.4022 47.0251 82.4926 46.7501 82.4926 46.4101V44.5726C82.4926 44.4826 82.5181 44.4101 82.5691 44.3551C82.6202 44.3001 82.6897 44.2726 82.7778 44.2726Z" fill="#FF7628"/>
<path d="M85.6686 47.5576C85.8309 47.5726 85.9121 47.6526 85.9121 47.7976C85.9121 47.8826 85.8819 47.9476 85.8216 47.9926C85.766 48.0326 85.6802 48.0476 85.5642 48.0376L85.3764 48.0226C85.0054 47.9926 84.7318 47.8726 84.5556 47.6626C84.3793 47.4526 84.2912 47.1351 84.2912 46.7101V44.8276H83.8251C83.7463 44.8276 83.6837 44.8076 83.6373 44.7676C83.5956 44.7226 83.5747 44.6651 83.5747 44.5951C83.5747 44.5201 83.5956 44.4601 83.6373 44.4151C83.6837 44.3701 83.7463 44.3476 83.8251 44.3476H84.2912V43.5001C84.2912 43.4051 84.3167 43.3326 84.3677 43.2826C84.4187 43.2276 84.4883 43.2001 84.5764 43.2001C84.6599 43.2001 84.7271 43.2276 84.7782 43.2826C84.8292 43.3326 84.8547 43.4051 84.8547 43.5001V44.3476H85.6269C85.7011 44.3476 85.759 44.3701 85.8008 44.4151C85.8471 44.4601 85.8703 44.5201 85.8703 44.5951C85.8703 44.6651 85.8471 44.7226 85.8008 44.7676C85.759 44.8076 85.7011 44.8276 85.6269 44.8276H84.8547V46.7401C84.8547 47.0151 84.9057 47.2151 85.0077 47.3401C85.1144 47.4601 85.2721 47.5276 85.4808 47.5426L85.6686 47.5576Z" fill="#FF7628"/>
<path d="M86.7527 48.0376C86.6693 48.0376 86.5997 48.0126 86.544 47.9626C86.493 47.9076 86.4675 47.8326 86.4675 47.7376V44.5726C86.4675 44.4776 86.493 44.4051 86.544 44.3551C86.5997 44.3001 86.6693 44.2726 86.7527 44.2726C86.8362 44.2726 86.9035 44.3001 86.9545 44.3551C87.0055 44.4051 87.031 44.4776 87.031 44.5726V47.7376C87.031 47.8376 87.0055 47.9126 86.9545 47.9626C86.9035 48.0126 86.8362 48.0376 86.7527 48.0376ZM86.7527 43.4851C86.6414 43.4851 86.551 43.4501 86.4814 43.3801C86.4119 43.3101 86.3771 43.2176 86.3771 43.1026C86.3771 42.9926 86.4119 42.9026 86.4814 42.8326C86.551 42.7626 86.6414 42.7276 86.7527 42.7276C86.864 42.7276 86.9545 42.7626 87.024 42.8326C87.0936 42.9026 87.1284 42.9926 87.1284 43.1026C87.1284 43.2176 87.0936 43.3101 87.024 43.3801C86.9545 43.4501 86.864 43.4851 86.7527 43.4851Z" fill="#FF7628"/>
<path d="M89.4896 48.0526C89.1696 48.0526 88.8867 47.9751 88.6409 47.8201C88.3997 47.6651 88.2119 47.4451 88.0774 47.1601C87.9475 46.8701 87.8826 46.5351 87.8826 46.1551C87.8826 45.7751 87.9475 45.4426 88.0774 45.1576C88.2119 44.8676 88.3997 44.6451 88.6409 44.4901C88.8867 44.3351 89.1696 44.2576 89.4896 44.2576C89.8096 44.2576 90.0925 44.3351 90.3383 44.4901C90.5841 44.6451 90.7719 44.8676 90.9017 45.1576C91.0362 45.4426 91.1035 45.7751 91.1035 46.1551C91.1035 46.5351 91.0362 46.8701 90.9017 47.1601C90.7719 47.4451 90.5841 47.6651 90.3383 47.8201C90.0925 47.9751 89.8096 48.0526 89.4896 48.0526ZM89.4896 47.5501C89.8235 47.5501 90.0786 47.4326 90.2548 47.1976C90.4357 46.9576 90.5261 46.6101 90.5261 46.1551C90.5261 45.7101 90.4357 45.3676 90.2548 45.1276C90.0739 44.8826 89.8189 44.7601 89.4896 44.7601C89.1603 44.7601 88.9052 44.8826 88.7244 45.1276C88.5435 45.3676 88.4531 45.7101 88.4531 46.1551C88.4531 46.6051 88.5412 46.9501 88.7174 47.1901C88.8983 47.4301 89.1557 47.5501 89.4896 47.5501Z" fill="#FF7628"/>
<path d="M93.6474 44.2576C94.459 44.2576 94.8648 44.7401 94.8648 45.7051V47.7376C94.8648 47.8326 94.8393 47.9076 94.7883 47.9626C94.7419 48.0126 94.6746 48.0376 94.5865 48.0376C94.4984 48.0376 94.4289 48.0126 94.3778 47.9626C94.3268 47.9076 94.3013 47.8326 94.3013 47.7376V45.7426C94.3013 45.4026 94.2387 45.1551 94.1135 45.0001C93.9929 44.8451 93.7981 44.7676 93.5291 44.7676C93.2184 44.7676 92.9703 44.8701 92.7848 45.0751C92.5993 45.2801 92.5065 45.5576 92.5065 45.9076V47.7376C92.5065 47.8326 92.481 47.9076 92.43 47.9626C92.3836 48.0126 92.3164 48.0376 92.2283 48.0376C92.1402 48.0376 92.0706 48.0126 92.0196 47.9626C91.9686 47.9076 91.9431 47.8326 91.9431 47.7376V44.5726C91.9431 44.4826 91.9686 44.4101 92.0196 44.3551C92.0706 44.3001 92.1402 44.2726 92.2283 44.2726C92.3117 44.2726 92.3767 44.3001 92.4231 44.3551C92.4741 44.4101 92.4996 44.4801 92.4996 44.5651V44.9476C92.6109 44.7226 92.7662 44.5526 92.9657 44.4376C93.1651 44.3176 93.3923 44.2576 93.6474 44.2576Z" fill="#FF7628"/>
</g>
</g>
</svg>
